<svg width="32" height="32" viewBox="0 0 32 32" fill="none" xmlns="http://www.w3.org/2000/svg">
<path d="M25 13.165V6.64978C25 5.18718 23.8329 4 22.3951 4H19.1553C17.7174 4.0095 16.5504 5.19668 16.5504 6.65928V13.1745H8.5769C7.15774 13.165 6 14.3427 6 15.7958C6 19.6233 9.06241 22.7384 12.8251 22.7384H15.0752C16.9518 23.4507 18.2123 25.2932 18.2123 27.3352V28H25V22.7384V13.165ZM17.8575 6.65928C17.8575 5.92798 18.4364 5.33914 19.1553 5.33914H22.3951C23.114 5.33914 23.6929 5.92798 23.6929 6.65928V13.1745H17.8575V6.65928ZM7.30713 15.7958C7.30713 15.0835 7.87666 14.5042 8.5769 14.5042H23.6835V17.4294V20.2026V21.4088H12.8251C9.78133 21.4088 7.30713 18.892 7.30713 15.7958ZM23.6929 26.6704H19.4821C19.3233 25.1413 18.6138 23.7452 17.5307 22.7384H23.6929V26.6704Z" fill="#E3E3E3"/>
</svg>
