<svg width="32" height="32" viewBox="0 0 32 32" fill="none" xmlns="http://www.w3.org/2000/svg">
<path d="M20.7014 4.307H25.9906V3H20.7014C20.0168 3 19.3697 3.2614 18.882 3.74686L8.33169 14.1842C7.48766 15.0244 7 16.182 7 17.3677V21.6061V22.2596V29H25.9906V27.693H8.31293V22.9131H14.4274V16.8262H20.542V10.7487H26V9.44165H20.542V4.31634C20.5888 4.31634 20.6451 4.307 20.7014 4.307ZM13.1145 21.6061H8.31293V17.3677C8.31293 16.5275 8.65992 15.6966 9.26012 15.1084L13.1145 11.2995V15.5285V16.182V21.6061ZM19.2196 10.0952V15.5285H14.4274V10.0018L19.229 5.25925V9.44165V10.0952H19.2196Z" fill="#E3E3E3"/>
</svg>
