<svg width="29" height="23" viewBox="0 0 29 23" fill="none" xmlns="http://www.w3.org/2000/svg">
<path d="M27.4189 0H1.58112C0.70379 0 0 0.689245 0 1.54844V3.99384C0 4.81527 0.665226 5.48563 1.50399 5.53284V20.3658H2.85372V5.53284H26.1463V20.3658H27.496V5.53284C28.3251 5.49507 29 4.81527 29 3.99384V1.54844C29 0.689245 28.2866 0 27.4189 0ZM27.6503 3.9844C27.6503 4.10714 27.5442 4.211 27.4189 4.211H1.58112C1.45578 4.211 1.34973 4.10714 1.34973 3.9844V1.54844C1.34973 1.4257 1.45578 1.32184 1.58112 1.32184H27.4189C27.5442 1.32184 27.6503 1.4257 27.6503 1.54844V3.9844Z" fill="#E3E3E3"/>
<path d="M22.4633 12.8316V10.6222C22.4633 9.11154 21.21 7.89355 19.677 7.89355H10.1229C8.58031 7.89355 7.33662 9.12098 7.33662 10.6222V12.8316C5.98689 12.841 4.89746 13.9174 4.89746 15.2392V18.1378C4.89746 19.318 5.76515 20.3 6.91242 20.5077V21.3858C6.91242 22.2733 7.65477 23.0003 8.56102 23.0003H10.3157C11.2219 23.0003 11.9643 22.2733 11.9643 21.3858V20.5454H17.8453V21.3858C17.8453 22.2733 18.5876 23.0003 19.4939 23.0003H21.2485C22.1548 23.0003 22.8971 22.2733 22.8971 21.3858V20.5077C24.0444 20.3 24.9121 19.318 24.9121 18.1378V15.2392C24.9024 13.9174 23.813 12.841 22.4633 12.8316ZM8.68636 10.6222C8.68636 9.84799 9.3323 9.21539 10.1229 9.21539H19.677C20.4676 9.21539 21.1135 9.84799 21.1135 10.6222V12.8316H8.68636V10.6222ZM10.6145 21.3952C10.6145 21.5557 10.4796 21.6879 10.3157 21.6879H8.56102C8.39713 21.6879 8.26215 21.5557 8.26215 21.3952V20.5549H10.6145V21.3952ZM21.2485 21.6785H19.4939C19.33 21.6785 19.195 21.5463 19.195 21.3858V20.5454H21.5474V21.3858C21.5377 21.5463 21.4028 21.6785 21.2485 21.6785ZM23.5527 18.1378C23.5527 18.7421 23.0514 19.2236 22.444 19.2236H7.3559C6.73888 19.2236 6.2472 18.7326 6.2472 18.1378V15.2392C6.2472 14.6349 6.74852 14.1534 7.3559 14.1534H22.4344C23.0514 14.1534 23.5431 14.6444 23.5431 15.2392V18.1378H23.5527Z" fill="#E3E3E3"/>
<path d="M9.00505 14.6348C7.84813 14.6348 6.90332 15.5601 6.90332 16.6931C6.90332 17.8261 7.84813 18.7514 9.00505 18.7514C10.162 18.7514 11.1068 17.8261 11.1068 16.6931C11.1068 15.5601 10.162 14.6348 9.00505 14.6348ZM9.00505 17.4201C8.59049 17.4201 8.25305 17.0896 8.25305 16.6836C8.25305 16.2776 8.59049 15.9472 9.00505 15.9472C9.41961 15.9472 9.75704 16.2776 9.75704 16.6836C9.75704 17.0896 9.41961 17.4201 9.00505 17.4201Z" fill="#E3E3E3"/>
<path d="M20.7951 14.6348C19.6382 14.6348 18.6934 15.5601 18.6934 16.6931C18.6934 17.8261 19.6382 18.7514 20.7951 18.7514C21.952 18.7514 22.8968 17.8261 22.8968 16.6931C22.8968 15.5601 21.952 14.6348 20.7951 14.6348ZM20.7951 17.4201C20.3805 17.4201 20.0431 17.0896 20.0431 16.6836C20.0431 16.2776 20.3805 15.9472 20.7951 15.9472C21.2096 15.9472 21.5471 16.2776 21.5471 16.6836C21.5471 17.0896 21.2 17.4201 20.7951 17.4201Z" fill="#E3E3E3"/>
</svg>
