<svg width="29" height="20" viewBox="0 0 29 20" fill="none" xmlns="http://www.w3.org/2000/svg">
<path d="M26.7244 19.2295H23.5448C22.2199 19.2295 21.1411 18.1507 21.1411 16.8258C21.1411 16.2296 20.6584 15.747 20.0623 15.747H8.86714C8.27095 15.747 7.78832 16.2296 7.78832 16.8258C7.78832 18.1507 6.7095 19.2295 5.38463 19.2295H1.85481C0.832773 19.2295 0 18.3967 0 17.3747V10.6084C0 9.58635 0.832773 8.75358 1.85481 8.75358H2.38476V1.83589C2.38476 0.823309 3.20807 0 4.22064 0H24.7088C25.7213 0 26.5446 0.823309 26.5446 1.83589V8.75358H26.7244C27.7465 8.75358 28.5793 9.58635 28.5793 10.6084V17.3747C28.5793 18.3967 27.7465 19.2295 26.7244 19.2295ZM8.86714 14.4221H20.0623C21.3871 14.4221 22.4659 15.5009 22.4659 16.8258C22.4659 17.422 22.9486 17.9046 23.5448 17.9046H26.7244C27.0178 17.9046 27.2544 17.668 27.2544 17.3747V10.6084C27.2544 10.315 27.0178 10.0784 26.7244 10.0784H1.85481C1.56145 10.0784 1.32487 10.315 1.32487 10.6084V17.3747C1.32487 17.668 1.56145 17.9046 1.85481 17.9046H5.38463C5.98082 17.9046 6.46345 17.422 6.46345 16.8258C6.46345 15.5009 7.54227 14.4221 8.86714 14.4221ZM23.9044 8.75358H25.2198V1.83589C25.2198 1.55199 24.9927 1.32487 24.7088 1.32487H4.22064C3.93674 1.32487 3.70963 1.55199 3.70963 1.83589V8.75358H5.02503V7.75047C5.02503 6.46345 6.06599 5.42249 7.35301 5.42249H11.5831C12.8701 5.42249 13.9111 6.46345 13.9111 7.75047V8.75358H15.0278V7.75047C15.0278 6.46345 16.0687 5.42249 17.3557 5.42249H21.5764C22.8634 5.42249 23.9044 6.46345 23.9044 7.75047V8.75358ZM16.3432 8.75358H22.5795V7.75047C22.5795 7.20159 22.1253 6.74735 21.5764 6.74735H17.3463C16.7974 6.74735 16.3432 7.20159 16.3432 7.75047V8.75358ZM6.34989 8.75358H12.5862V7.75047C12.5862 7.20159 12.132 6.74735 11.5831 6.74735H7.35301C6.80413 6.74735 6.34989 7.20159 6.34989 7.75047V8.75358Z" fill="#E3E3E3"/>
</svg>
