<svg width="17" height="20" viewBox="0 0 17 20" fill="none" xmlns="http://www.w3.org/2000/svg">
<path d="M15.6524 19.6422C15.8913 19.6422 16.0108 19.5227 16.0108 19.2837V4.34829C16.0108 4.2288 16.0108 4.10932 15.8913 4.10932L11.5899 0.046874H11.4704H0.358451C0.119484 -0.0726097 0 0.046874 0 0.285841V19.2837C0 19.5227 0.119484 19.6422 0.358451 19.6422H15.6524ZM11.7094 1.12223L14.816 4.10932H11.7094V1.12223ZM0.716902 0.644293H11.112V4.46777C11.112 4.58725 11.2315 4.70674 11.351 4.70674H15.2939V18.9253H0.716902V0.644293Z" fill="#B34215"/>
<path d="M10.5135 8.29127L6.33159 12.4732L5.61468 11.3978C5.4952 11.2784 5.25623 11.1589 5.13675 11.2784C5.01727 11.3978 4.89778 11.6368 5.01727 11.7563L5.97313 13.1901C5.97313 13.3096 6.09262 13.3096 6.2121 13.3096C6.33159 13.3096 6.33159 13.3096 6.45107 13.1901L10.872 8.76921C10.9915 8.64972 10.9915 8.41076 10.872 8.29127C10.7525 8.17179 10.633 8.17179 10.5135 8.29127Z" fill="#B34215"/>
</svg>
