<svg width="17" height="25" viewBox="0 0 17 25" fill="none" xmlns="http://www.w3.org/2000/svg">
<path d="M8.12463 12.4274C8.00514 12.4274 8.00514 12.4274 7.88566 12.3079L1.91148 6.69214C1.91148 6.69214 1.79199 6.57266 1.79199 6.45318V2.03228C1.79199 1.79331 1.91148 1.67383 2.15044 1.67383H14.0988C14.3378 1.67383 14.4573 1.79331 14.4573 2.03228V6.45318C14.4573 6.57266 14.4573 6.69214 14.3378 6.69214L8.3636 12.3079C8.24411 12.4274 8.24411 12.4274 8.12463 12.4274ZM2.50889 6.33369L8.12463 11.591L13.7404 6.33369V2.39073H2.50889V6.33369Z" fill="#B34215"/>
<path d="M14.0988 22.5818H2.15044C1.91148 22.5818 1.79199 22.4623 1.79199 22.2233V17.5635C1.79199 17.444 1.79199 17.3245 1.91148 17.3245L7.88566 11.7088C8.00514 11.5893 8.24411 11.5893 8.3636 11.7088L14.3378 17.3245C14.4573 17.444 14.4573 17.444 14.4573 17.5635V22.2233C14.4573 22.4623 14.3378 22.5818 14.0988 22.5818ZM2.50889 21.8649H13.7404V17.6829L8.12463 12.4257L2.50889 17.6829V21.8649Z" fill="#B34215"/>
<path d="M15.8913 0.716902H0.358451C0.119484 0.716902 0 0.477935 0 0.358451C0 0.119484 0.119484 0 0.358451 0H15.8913C16.1303 0 16.2498 0.119484 16.2498 0.358451C16.2498 0.477935 16.1303 0.716902 15.8913 0.716902Z" fill="#B34215"/>
<path d="M15.8913 24.255H0.358451C0.119484 24.255 0 24.1355 0 23.8965C0 23.6576 0.119484 23.5381 0.358451 23.5381H15.8913C16.1303 23.5381 16.2498 23.6576 16.2498 23.8965C16.2498 24.1355 16.1303 24.255 15.8913 24.255Z" fill="#B34215"/>
<path d="M12.5463 4.54112H10.3956C10.1566 4.54112 10.0371 4.42164 10.0371 4.18267C10.0371 3.9437 10.1566 3.82422 10.3956 3.82422H12.4268C12.6658 3.82422 12.7852 3.9437 12.7852 4.18267C12.9047 4.42164 12.6658 4.54112 12.5463 4.54112Z" fill="#B34215"/>
</svg>
