<svg width="27" height="27" viewBox="0 0 27 27" fill="none" xmlns="http://www.w3.org/2000/svg">
<path d="M9.68085 10.4347C9.68085 10.3102 9.68085 10.3102 9.68085 10.4347L8.3286 5.07904C8.3286 4.82994 8.08274 4.82994 7.95981 4.82994C7.71395 4.82994 7.71395 5.07904 7.71395 5.20359L8.6974 9.18922L0.706856 1.09341C0.583924 0.968862 0.338061 0.968862 0.21513 1.09341C0.0921986 1.21796 0.0921986 1.46707 0.21513 1.59162L8.20567 9.68743L4.3948 8.69102C4.14894 8.69102 4.026 8.69102 4.026 8.94012C4.026 9.18922 4.026 9.31377 4.27187 9.31377L9.43499 10.6838C9.43499 10.6838 9.43499 10.6838 9.55792 10.6838H9.68085C9.68085 10.6838 9.80378 10.6838 9.80378 10.5593C9.80378 10.5593 9.80378 10.4347 9.92671 10.4347C9.68085 10.5593 9.68085 10.5593 9.68085 10.4347Z" fill="#B34215"/>
<path d="M16.3191 10.5593C16.3191 10.6838 16.3191 10.6838 16.4421 10.6838C16.4421 10.6838 16.565 10.6838 16.565 10.8084C16.565 10.9329 16.6879 10.8084 16.6879 10.8084C16.6879 10.8084 16.6879 10.8084 16.8109 10.8084L21.974 9.43832C22.2199 9.43832 22.2199 9.18922 22.2199 9.06467C22.2199 8.81557 21.974 8.81557 21.8511 8.81557L17.7943 9.68743L25.9078 1.59162C26.0307 1.46707 26.0307 1.21796 25.9078 1.09341C25.7849 0.968862 25.539 0.968862 25.4161 1.09341L17.3026 9.18922L18.2861 5.20359C18.2861 4.95449 18.2861 4.82994 18.0402 4.82994C17.7943 4.82994 17.6714 4.82994 17.6714 5.07904L16.3191 10.3102C16.3191 10.3102 16.3191 10.3102 16.3191 10.5593C16.3191 10.4347 16.3191 10.4347 16.3191 10.5593Z" fill="#B34215"/>
<path d="M17.7943 18.2814L21.7281 19.2778C21.974 19.2778 22.0969 19.2778 22.0969 19.0287C22.0969 18.7796 22.0969 18.6551 21.8511 18.6551L16.6879 17.285C16.565 17.285 16.565 17.285 16.4421 17.285C16.4421 17.285 16.3191 17.285 16.3191 17.4096C16.3191 17.4096 16.3191 17.5341 16.1962 17.5341V17.6587C16.1962 17.6587 16.1962 17.6587 16.1962 17.7832L17.5485 23.0144C17.5485 23.1389 17.6714 23.2635 17.9173 23.2635C17.9173 23.2635 17.9173 23.2635 18.0402 23.2635C18.2861 23.2635 18.2861 23.0144 18.2861 22.8898L17.3026 18.7796L25.2931 26.8755C25.4161 27 25.4161 27 25.539 27C25.6619 27 25.6619 27 25.7849 26.8755C25.9078 26.7509 25.9078 26.5018 25.7849 26.3772L17.7943 18.2814Z" fill="#B34215"/>
<path d="M9.68085 17.5341C9.68085 17.4096 9.68085 17.4096 9.55792 17.4096C9.55792 17.4096 9.43499 17.4096 9.43499 17.285H9.31206C9.31206 17.285 9.31206 17.285 9.18913 17.285L4.026 18.6551C3.78014 18.6551 3.78014 18.9042 3.78014 19.0287C3.78014 19.2778 4.026 19.2778 4.14894 19.2778L8.08274 18.2814L0.0921986 26.3772C-0.0307329 26.5018 -0.0307329 26.7509 0.0921986 26.8755C0.21513 27 0.21513 27 0.338061 27C0.460993 27 0.460993 27 0.583924 26.8755L8.6974 18.7796L7.71395 22.7653C7.71395 23.0144 7.71395 23.1389 7.95981 23.1389C7.95981 23.1389 7.95981 23.1389 8.08274 23.1389C8.20567 23.1389 8.32861 23.0144 8.45154 22.8898L9.80378 17.6587C9.68085 17.6587 9.68085 17.6587 9.68085 17.5341Z" fill="#B34215"/>
</svg>
