<svg width="16" height="25" viewBox="0 0 16 25" fill="none" xmlns="http://www.w3.org/2000/svg">
<path d="M7.52692 11.9484C4.18138 11.9484 1.55273 9.20024 1.55273 5.97418C1.55273 2.62864 4.30086 0 7.52692 0C10.8725 0 13.5011 2.74813 13.5011 5.97418C13.5011 9.31973 10.8725 11.9484 7.52692 11.9484ZM7.52692 0.716902C4.53983 0.716902 2.26964 3.10658 2.26964 5.97418C2.26964 8.96128 4.65931 11.2315 7.52692 11.2315C10.514 11.2315 12.7842 8.84179 12.7842 5.97418C12.9037 3.10658 10.514 0.716902 7.52692 0.716902Z" fill="#B34215"/>
<path d="M15.0549 24.3756H0.358451C0.119484 24.3756 0 24.2561 0 24.0172V18.8794C0 14.578 3.46503 11.2324 7.64696 11.2324C11.8289 11.2324 15.2939 14.6974 15.2939 18.8794V24.0172C15.4134 24.2561 15.2939 24.3756 15.0549 24.3756ZM0.716902 23.7782H14.6965V18.9989C14.6965 15.1754 11.5899 11.9493 7.64696 11.9493C3.82348 11.9493 0.597418 15.0559 0.597418 18.9989V23.7782H0.716902Z" fill="#B34215"/>
</svg>
